# xmcd
#
# Track frame offsets:
#	150
#	11728
#	26958
#	37720
#	51340
#	60303
#	69720
#	80965
#	96268
#	104695
#	114180
#	122473
#	128133
#	139393
#
# Disc length: 2095 seconds
#
# Revision: 0
# Processed by: cddbd v1.5.2PL0 Copyright (c) Steve Scherf et al.
# Submitted via: EasyCDDAExtractor 16.0.6.1
#
DISCID=c5082d0e
DTITLE=Συλλογικός δίσκος - Ποτέ την Κυριακή-Μ. Χατζιδάκι
DYEAR=1989
DGENRE=Κινηματογραφική
TTITLE0=Άνευ ερμηνευτού - Τίτλοι-Τα παιδιά του Πειραιά [Μ. Χατζιδάκι]
TTITLE1=Άνευ ερμηνευτού - Πρόλογος [Μ. Χατζιδάκι-Ι. Καμπανέλλη]
TTITLE2=Άνευ ερμηνευτού - Μπουζούκια-Χασάπικο [Μ. Χατζιδάκι]
TTITLE3=Άνευ ερμηνευτού - Χορός ζεϊμπέκικος [Μ. Χατζιδάκι]
TTITLE4=Άνευ ερμηνευτού - Ερημιά [Μ. Χατζιδάκι]
TTITLE5=Βανδής Τίτος - Οι χαρές της Ίλυα [Μ. Χατζιδάκι]
TTITLE6=Άνευ ερμηνευτού - Πάμε μιά βόλτα στο φεγγάρι [Μ. Χατζιδάκι-Ν. Περιγιάλ
TTITLE6=η]
TTITLE7=Μερκούρη Μελίνα - Τα παιδιά του Πειραιά [Μ. Χατζιδάκι]
TTITLE8=Άνευ ερμηνευτού - Χορός χασάπικος [Μ. Χατζιδάκι]
TTITLE9=Άνευ ερμηνευτού - Μελωδία της λατέρνας [Μ. Χατζιδάκι]
TTITLE10=Άνευ ερμηνευτού - Η προδοσία [Μ. Χατζιδάκι]
TTITLE11=Άνευ ερμηνευτού - Πρωϊνό [Μ. Χατζιδάκι]
TTITLE12=Άνευ ερμηνευτού - Η λατέρνα [Μ. Χατζιδάκι-Αγ. Τερζάκη]
TTITLE13=Άνευ ερμηνευτού - Φινάλε [Μ. Χατζιδάκι]
EXTD=
EXTT0=
EXTT1=
EXTT2=
EXTT3=
EXTT4=
EXTT5=
EXTT6=
EXTT7=
EXTT8=
EXTT9=
EXTT10=
EXTT11=
EXTT12=
EXTT13=
PLAYORDER=
